<?xml version="1.0" standalone="no"?>
<!DOCTYPE svg PUBLIC "-//W3C//DTD SVG 20010904//EN"
 "http://www.w3.org/TR/2001/REC-SVG-20010904/DTD/svg10.dtd">
<svg version="1.0" xmlns="http://www.w3.org/2000/svg"
 width="215.000000pt" height="144.000000pt" viewBox="0 0 215.000000 144.000000"
 preserveAspectRatio="xMidYMid meet">

<g transform="translate(0.000000,144.000000) scale(0.100000,-0.100000)"
fill="#000000" stroke="none">
<path d="M17 1394 c-18 -18 -1 -23 81 -26 l87 -3 3 -242 c2 -205 5 -243 17
-243 12 0 15 34 17 210 l3 209 126 -207 127 -207 121 -3 c66 -1 121 1 121 5 0
4 -69 121 -153 258 l-153 250 -195 3 c-107 1 -198 -1 -202 -4z"/>
<path d="M860 1385 c0 -11 19 -15 88 -17 l87 -3 3 -242 c2 -205 5 -243 17
-243 12 0 15 35 17 217 l3 218 124 -218 123 -217 109 0 c60 0 109 4 109 8 0 5
-60 114 -134 243 l-133 234 93 3 c75 2 94 6 94 17 0 13 -43 15 -300 15 -256 0
-300 -2 -300 -15z"/>
<path d="M1670 1385 c0 -11 20 -15 98 -17 l99 -3 -134 -215 c-177 -284 -169
-270 -141 -270 19 0 48 42 173 245 l150 244 93 1 c75 0 92 3 92 15 0 13 -31
15 -215 15 -182 0 -215 -2 -215 -15z"/>
<path d="M1023 749 c-74 -27 -30 -128 46 -104 28 9 16 27 -13 19 -28 -7 -50
17 -41 46 5 16 14 21 36 18 16 -1 29 1 29 7 2 14 -33 23 -57 14z"/>
<path d="M120 695 c0 -42 3 -55 15 -55 10 0 15 10 15 33 l0 32 26 -32 c14 -18
30 -33 35 -33 5 0 9 25 9 55 0 30 -4 55 -10 55 -5 0 -10 -15 -10 -32 l-1 -33
-27 33 c-40 47 -52 42 -52 -23z"/>
<path d="M310 695 l0 -55 45 0 c52 0 61 17 13 22 -38 4 -40 22 -3 26 35 5 31
22 -5 22 -16 0 -30 5 -30 10 0 6 14 10 30 10 17 0 30 5 30 10 0 6 -18 10 -40
10 l-40 0 0 -55z"/>
<path d="M483 698 c24 -55 50 -73 60 -41 2 10 12 35 21 56 13 30 14 37 2 37
-7 0 -20 -17 -28 -37 l-15 -38 -18 38 c-30 60 -49 47 -22 -15z"/>
<path d="M650 695 l0 -55 45 0 c25 0 45 5 45 10 0 6 -13 10 -30 10 -20 0 -30
5 -30 15 0 9 9 15 25 15 14 0 25 5 25 10 0 6 -11 10 -25 10 -14 0 -25 5 -25
10 0 6 14 10 30 10 17 0 30 5 30 10 0 6 -20 10 -45 10 l-45 0 0 -55z"/>
<path d="M820 696 c0 -31 5 -56 10 -56 6 0 10 7 10 15 0 8 7 15 15 15 9 0 18
-7 21 -15 4 -8 12 -15 20 -15 16 0 19 16 4 25 -8 5 -7 11 0 20 6 8 10 24 8 37
-2 19 -10 23 -45 26 l-43 3 0 -55z m65 14 c0 -8 -10 -16 -22 -18 -18 -3 -23 2
-23 18 0 16 5 21 23 18 12 -2 22 -10 22 -18z"/>
<path d="M1176 734 c-35 -35 -6 -94 46 -94 46 0 78 66 46 98 -17 17 -74 15
-92 -4z m73 -18 c18 -22 -4 -58 -32 -54 -37 5 -36 68 1 68 11 0 25 -6 31 -14z"/>
<path d="M1360 695 c0 -30 5 -55 10 -55 6 0 10 15 10 33 l0 32 24 -29 23 -30
16 30 16 29 1 -32 c0 -23 5 -33 15 -33 12 0 15 13 15 55 0 64 -19 75 -45 24
-13 -24 -19 -28 -30 -19 -8 7 -17 20 -20 31 -4 10 -13 19 -21 19 -10 0 -14
-14 -14 -55z"/>
<path d="M1570 695 l0 -55 45 0 c52 0 61 17 13 22 -38 4 -40 22 -3 26 35 5 31
22 -5 22 -16 0 -30 5 -30 10 0 6 14 10 30 10 17 0 30 5 30 10 0 6 -18 10 -40
10 l-40 0 0 -55z"/>
<path d="M1745 724 c16 -25 16 -28 -4 -55 -24 -32 -9 -40 22 -12 18 17 19 17
28 0 6 -9 17 -17 26 -17 14 0 14 2 -1 25 -20 31 -20 44 1 67 14 16 14 18 1 18
-9 0 -21 -7 -29 -16 -11 -14 -13 -14 -21 0 -5 9 -16 16 -25 16 -13 0 -13 -3 2
-26z"/>
<path d="M190 295 l0 -225 -90 0 c-73 0 -90 -3 -90 -15 0 -13 28 -15 190 -15
162 0 190 2 190 15 0 12 -16 15 -85 15 l-85 0 0 225 c0 193 -2 225 -15 225
-13 0 -15 -32 -15 -225z"/>
<path d="M827 313 c69 -115 132 -217 139 -228 22 -31 17 -35 -46 -35 -47 0
-60 -3 -60 -15 0 -13 31 -15 215 -15 184 0 215 2 215 15 0 12 -18 15 -100 15
-55 0 -100 2 -100 5 0 3 65 109 145 235 130 207 142 230 121 230 -20 0 -44
-33 -152 -206 l-129 -207 -3 207 c-2 174 -5 206 -17 206 -12 0 -15 -15 -15
-72 l0 -73 -46 73 -46 72 -124 0 -124 0 127 -207z"/>
<path d="M1541 498 c7 -13 65 -117 131 -232 65 -115 118 -210 118 -212 0 -2
-36 -4 -80 -4 -64 0 -80 -3 -80 -15 0 -13 36 -15 260 -15 224 0 260 2 260 15
0 12 -14 15 -65 15 l-64 0 -133 235 -133 235 -113 0 -113 0 12 -22z"/>
</g>
</svg>
