<?xml version="1.0" standalone="no"?>
<!DOCTYPE svg PUBLIC "-//W3C//DTD SVG 20010904//EN"
 "http://www.w3.org/TR/2001/REC-SVG-20010904/DTD/svg10.dtd">
<svg version="1.0" xmlns="http://www.w3.org/2000/svg"
 width="1024.000000pt" height="1024.000000pt" viewBox="0 0 1024.000000 1024.000000"
 preserveAspectRatio="xMidYMid meet">
<metadata>
Created by potrace 1.14, written by Peter Selinger 2001-2017
</metadata>
<g transform="translate(0.000000,1024.000000) scale(0.100000,-0.100000)"
fill="#000000" stroke="none">
<path d="M0 5120 l0 -5120 4720 0 4720 0 0 80 0 80 320 0 320 0 0 -80 0 -80
80 0 80 0 0 5120 0 5120 -5120 0 -5120 0 0 -5120z m3807 2021 c7 -12 12 -75
12 -177 1 -87 9 -310 18 -494 14 -273 17 -493 15 -1184 l-2 -849 -41 -51 c-22
-28 -80 -94 -127 -146 -48 -52 -112 -122 -142 -155 -168 -184 -375 -385 -396
-385 l-23 0 6 456 c5 400 2 848 -23 2602 l-5 402 348 0 c329 0 349 -1 360 -19z
m3766 -41 c46 0 48 -1 45 -25 -2 -19 -128 -151 -438 -463 -240 -240 -464 -467
-498 -504 -34 -36 -66 -68 -70 -70 -4 -2 -79 -81 -167 -177 -88 -96 -185 -199
-215 -230 -30 -31 -95 -101 -145 -156 -49 -54 -99 -109 -110 -121 -11 -12 -56
-61 -100 -110 -44 -49 -99 -109 -122 -134 -24 -24 -43 -47 -43 -50 0 -3 11
-17 25 -32 14 -15 76 -85 138 -155 161 -184 303 -344 453 -513 l132 -146 -4
-345 c-5 -430 -11 -529 -30 -529 -26 0 -249 232 -307 320 -31 47 -74 103 -95
125 -21 22 -47 52 -58 67 -11 14 -65 74 -120 133 -54 59 -104 112 -109 119
-81 91 -316 358 -335 381 -14 16 -43 48 -65 72 l-40 42 -205 -230 c-221 -249
-221 -248 -295 -335 -27 -33 -66 -75 -85 -94 -19 -19 -48 -51 -65 -71 -16 -20
-72 -83 -124 -140 -318 -354 -556 -629 -621 -721 l-33 -48 -447 0 c-421 0
-448 1 -463 18 -19 21 -86 -52 637 683 261 265 410 420 701 729 50 53 140 152
201 220 62 69 122 136 135 150 35 38 232 262 248 282 11 15 9 22 -16 51 -31
37 -392 443 -508 572 -212 235 -193 209 -200 278 -9 87 -12 803 -3 813 11 10
102 -56 177 -129 35 -34 143 -154 240 -267 96 -113 198 -230 227 -260 28 -30
102 -114 165 -185 63 -72 166 -188 229 -258 l114 -128 36 38 c19 22 85 95 145
163 61 68 121 135 135 150 14 15 43 47 64 71 22 24 71 78 110 119 39 41 105
113 146 160 41 46 84 94 96 105 11 11 47 52 79 90 32 39 77 90 100 115 40 43
108 119 315 354 52 59 115 133 140 163 l45 56 405 -6 c223 -4 427 -7 453 -7z
m-69 -832 c13 -358 5 -3308 -9 -3355 -4 -10 -85 -13 -363 -13 l-359 0 -5 248
c-3 136 -2 770 1 1409 l6 1161 35 44 c19 23 56 66 81 93 26 28 82 89 126 136
79 86 397 400 443 437 14 11 28 18 31 16 3 -2 9 -81 13 -176z"/>
</g>
</svg>
